# Blender v2.78 (sub 0) OBJ File: 'MyShkaf — копия.blend'
# www.blender.org
mtllib Shkaf.mtl
o Cube.012_Cube.015
v -0.107657 0.476134 -1.483475
v -0.107657 2.299065 -1.483475
v -0.107657 2.299065 -1.517303
v -0.107657 0.476134 -1.517303
v 0.268205 0.476134 -1.483475
v 0.268205 2.299065 -1.483475
v 0.268205 2.299065 -1.517303
v 0.268205 0.476134 -1.517303
v -0.110184 -0.967556 -1.482641
v -0.110184 0.441927 -1.482641
v -0.110184 0.441927 -1.516468
v -0.110184 -0.967556 -1.516468
v 0.453609 -0.967556 -1.482641
v 0.453609 0.441927 -1.482641
v 0.453609 0.441927 -1.516468
v 0.453609 -0.967556 -1.516468
v 0.225026 2.298589 1.374149
v 0.269488 2.298589 1.374149
v 0.225026 2.298589 -0.961695
v 0.269488 2.298589 -0.961695
v -0.110528 0.442141 1.490766
v -0.110528 0.442141 -1.083889
v -0.110528 2.321452 1.490766
v -0.110528 2.321452 -1.083889
v -0.108303 -0.310455 1.456642
v -0.108303 -0.310455 -0.798530
v -0.074476 -0.310455 -0.798530
v -0.074476 -0.310455 1.456642
v -0.108303 0.441269 1.456642
v -0.108303 0.441269 -0.798530
v -0.074476 0.441269 -0.798530
v -0.074476 0.441269 1.456642
v -0.078724 2.153990 -0.212683
v -0.078724 2.153990 -0.250269
v 0.232864 2.153990 -0.212683
v 0.232864 2.153990 -0.250269
v 0.232864 2.185318 -0.212683
v -0.078723 2.185318 -0.212683
v 0.232864 2.185318 -0.250269
v -0.078724 2.185318 -0.250269
v 0.043768 2.153990 -0.212683
v 0.110373 2.153990 -0.212683
v 0.110373 2.341921 -0.212683
v 0.043768 2.341921 -0.212683
v 0.110373 2.341921 -0.250269
v 0.043768 2.341921 -0.250269
v 0.110373 2.153990 -0.250269
v 0.043768 2.153990 -0.250269
v 0.110373 2.185318 -0.212683
v 0.043768 2.185318 -0.212683
v 0.110373 2.185318 -0.250269
v 0.043768 2.185318 -0.250269
v -0.078724 2.153990 0.689097
v -0.078723 2.153990 0.651511
v 0.232864 2.153990 0.689097
v 0.232864 2.153990 0.651511
v 0.232864 2.185318 0.689097
v -0.078724 2.185318 0.689097
v 0.232864 2.185318 0.651511
v -0.078724 2.185318 0.651511
v 0.043768 2.153990 0.689097
v 0.110373 2.153990 0.689097
v 0.110373 2.341921 0.689097
v 0.043768 2.341921 0.689097
v 0.110373 2.341921 0.651511
v 0.043768 2.341921 0.651511
v 0.110373 2.153990 0.651511
v 0.043768 2.153990 0.651511
v 0.110373 2.185318 0.689097
v 0.043768 2.185318 0.689097
v 0.110373 2.185318 0.651511
v 0.043768 2.185318 0.651511
v -0.107657 1.041599 -1.482424
v -0.107657 1.041599 -1.084010
v -0.107657 1.079186 -1.084010
v -0.107657 1.079186 -1.482424
v 0.268205 1.041599 -1.482424
v 0.268205 1.041599 -1.084010
v 0.268205 1.079186 -1.084010
v 0.268205 1.079186 -1.482424
v -0.107657 1.642978 -1.479999
v -0.107657 1.642978 -1.081585
v -0.107657 1.680565 -1.081585
v -0.107657 1.680565 -1.479999
v 0.268205 1.642978 -1.479999
v 0.268205 1.642978 -1.081586
v 0.268205 1.680565 -1.081586
v 0.268205 1.680565 -1.479999
v -0.110184 -0.159886 -1.482504
v -0.110184 -0.159886 -0.832263
v -0.110184 -0.122300 -0.832263
v -0.110184 -0.122300 -1.482504
v 0.453609 -0.159886 -1.482504
v 0.453609 -0.159886 -0.832263
v 0.453609 -0.122300 -0.832263
v 0.453609 -0.122300 -1.482504
v -0.110184 -0.761265 -1.482504
v -0.110184 -0.761265 -0.832263
v -0.110184 -0.723679 -0.832263
v -0.110184 -0.723679 -1.482504
v 0.453609 -0.761265 -1.482504
v 0.453609 -0.761265 -0.832263
v 0.453609 -0.723679 -0.832263
v 0.453609 -0.723679 -1.482504
v -0.101169 0.476506 -1.047886
v -0.101169 2.299437 -1.047887
v -0.101169 2.299437 -1.081714
v -0.101169 0.476506 -1.081714
v 0.274693 0.476505 -1.047886
v 0.274693 2.299437 -1.047887
v 0.274693 2.299437 -1.081714
v 0.274693 0.476505 -1.081714
v -0.110184 -0.966027 -0.799334
v -0.110184 0.443456 -0.799334
v -0.110184 0.443456 -0.833161
v -0.110184 -0.966027 -0.833161
v 0.453609 -0.966027 -0.799334
v 0.453609 0.443456 -0.799334
v 0.453609 0.443456 -0.833161
v 0.453609 -0.966027 -0.833161
v -0.110184 -0.967556 1.490755
v -0.110184 0.441927 1.490755
v -0.110184 0.441927 1.456927
v -0.110184 -0.967556 1.456927
v 0.453609 -0.967556 1.490755
v 0.453609 0.441927 1.490754
v 0.453609 0.441927 1.456927
v 0.453609 -0.967556 1.456927
v -0.107658 2.299378 -1.516433
v -0.107657 2.299378 1.490463
v -0.107657 2.333206 1.490463
v -0.107657 2.333206 -1.516433
v 0.268205 2.299378 -1.516433
v 0.268206 2.299378 1.490463
v 0.268206 2.333206 1.490463
v 0.268205 2.333206 -1.516433
v -0.107657 0.476134 1.489920
v -0.107657 2.299065 1.489920
v -0.107657 2.299065 1.456092
v -0.107657 0.476134 1.456092
v 0.268205 0.476134 1.489920
v 0.268205 2.299065 1.489920
v 0.268205 2.299065 1.456092
v 0.268205 0.476134 1.456092
v -0.110149 0.475806 1.490070
v -0.110149 0.475806 -1.516826
v -0.110149 0.441978 -1.516826
v -0.110149 0.441978 1.490070
v 0.641575 0.475806 1.490070
v 0.641575 0.475806 -1.516826
v 0.641575 0.441978 -1.516826
v 0.641575 0.441978 1.490070
vn -0.0000 0.0000 1.0000
vn 0.0000 1.0000 0.0000
vn 0.0000 -0.0000 -1.0000
vn -0.0000 -1.0000 0.0000
vn -1.0000 0.0000 -0.0000
vn 1.0000 -0.0000 0.0000
usemtl Material.001
s off
f 6//1 1//1 5//1
f 7//2 2//2 6//2
f 8//3 3//3 7//3
f 5//4 4//4 8//4
f 1//5 3//5 4//5
f 7//6 5//6 8//6
f 13//1 10//1 9//1
f 14//2 11//2 10//2
f 16//3 11//3 15//3
f 13//4 12//4 16//4
f 10//5 12//5 9//5
f 15//6 13//6 16//6
f 30//5 25//5 29//5
f 31//3 26//3 30//3
f 32//6 27//6 31//6
f 29//1 28//1 32//1
f 26//4 28//4 25//4
f 31//2 29//2 32//2
f 44//5 52//5 50//5
f 48//3 40//3 52//3
f 41//4 34//4 48//4
f 50//1 33//1 41//1
f 40//2 50//2 52//2
f 38//5 34//5 33//5
f 39//6 35//6 36//6
f 49//1 44//1 50//1
f 51//2 37//2 39//2
f 45//2 44//2 43//2
f 36//3 51//3 39//3
f 47//3 52//3 51//3
f 35//4 47//4 36//4
f 42//4 48//4 47//4
f 37//1 42//1 35//1
f 42//1 50//1 41//1
f 51//6 43//6 49//6
f 51//3 46//3 45//3
f 64//5 72//5 70//5
f 68//3 60//3 72//3
f 61//4 54//4 68//4
f 70//1 53//1 61//1
f 72//2 58//2 70//2
f 58//5 54//5 53//5
f 59//6 55//6 56//6
f 69//1 64//1 70//1
f 71//2 57//2 59//2
f 65//2 64//2 63//2
f 56//3 71//3 59//3
f 67//3 72//3 71//3
f 55//4 67//4 56//4
f 67//4 61//4 68//4
f 57//1 62//1 55//1
f 62//1 70//1 61//1
f 71//6 63//6 69//6
f 71//3 66//3 65//3
f 78//4 73//4 77//4
f 79//1 74//1 78//1
f 80//2 75//2 79//2
f 77//3 76//3 80//3
f 74//5 76//5 73//5
f 79//6 77//6 80//6
f 86//4 81//4 85//4
f 87//1 82//1 86//1
f 88//2 83//2 87//2
f 85//3 84//3 88//3
f 82//5 84//5 81//5
f 87//6 85//6 88//6
f 94//4 89//4 93//4
f 95//1 90//1 94//1
f 96//2 91//2 95//2
f 93//3 92//3 96//3
f 90//5 92//5 89//5
f 95//6 93//6 96//6
f 102//4 97//4 101//4
f 103//1 98//1 102//1
f 104//2 99//2 103//2
f 101//3 100//3 104//3
f 98//5 100//5 97//5
f 103//6 101//6 104//6
f 102//4 98//4 97//4
f 103//1 99//1 98//1
f 104//2 100//2 99//2
f 101//3 97//3 100//3
f 98//5 99//5 100//5
f 103//6 102//6 101//6
f 110//1 105//1 109//1
f 111//2 106//2 110//2
f 112//3 107//3 111//3
f 109//4 108//4 112//4
f 105//5 107//5 108//5
f 111//6 109//6 112//6
f 117//1 114//1 113//1
f 119//2 114//2 118//2
f 120//3 115//3 119//3
f 117//4 116//4 120//4
f 114//5 116//5 113//5
f 119//6 117//6 120//6
f 125//1 122//1 121//1
f 126//2 123//2 122//2
f 128//3 123//3 127//3
f 125//4 124//4 128//4
f 122//5 124//5 121//5
f 127//6 125//6 128//6
f 134//4 129//4 133//4
f 135//1 130//1 134//1
f 136//2 131//2 135//2
f 133//3 132//3 136//3
f 130//5 132//5 129//5
f 135//6 133//6 136//6
f 142//1 137//1 141//1
f 143//2 138//2 142//2
f 144//3 139//3 143//3
f 144//4 137//4 140//4
f 138//5 140//5 137//5
f 143//6 141//6 144//6
f 150//2 145//2 149//2
f 151//3 146//3 150//3
f 152//4 147//4 151//4
f 152//1 145//1 148//1
f 146//5 148//5 145//5
f 151//6 149//6 152//6
f 6//1 2//1 1//1
f 7//2 3//2 2//2
f 8//3 4//3 3//3
f 5//4 1//4 4//4
f 1//5 2//5 3//5
f 7//6 6//6 5//6
f 13//1 14//1 10//1
f 14//2 15//2 11//2
f 16//3 12//3 11//3
f 13//4 9//4 12//4
f 10//5 11//5 12//5
f 15//6 14//6 13//6
f 30//5 26//5 25//5
f 31//3 27//3 26//3
f 32//6 28//6 27//6
f 29//1 25//1 28//1
f 26//4 27//4 28//4
f 31//2 30//2 29//2
f 44//5 46//5 52//5
f 48//3 34//3 40//3
f 41//4 33//4 34//4
f 50//1 38//1 33//1
f 40//2 38//2 50//2
f 38//5 40//5 34//5
f 39//6 37//6 35//6
f 49//1 43//1 44//1
f 51//2 49//2 37//2
f 45//2 46//2 44//2
f 36//3 47//3 51//3
f 47//3 48//3 52//3
f 35//4 42//4 47//4
f 42//4 41//4 48//4
f 37//1 49//1 42//1
f 42//1 49//1 50//1
f 51//6 45//6 43//6
f 51//3 52//3 46//3
f 64//5 66//5 72//5
f 68//3 54//3 60//3
f 61//4 53//4 54//4
f 70//1 58//1 53//1
f 72//2 60//2 58//2
f 58//5 60//5 54//5
f 59//6 57//6 55//6
f 69//1 63//1 64//1
f 71//2 69//2 57//2
f 65//2 66//2 64//2
f 56//3 67//3 71//3
f 67//3 68//3 72//3
f 55//4 62//4 67//4
f 67//4 62//4 61//4
f 57//1 69//1 62//1
f 62//1 69//1 70//1
f 71//6 65//6 63//6
f 71//3 72//3 66//3
f 78//4 74//4 73//4
f 79//1 75//1 74//1
f 80//2 76//2 75//2
f 77//3 73//3 76//3
f 74//5 75//5 76//5
f 79//6 78//6 77//6
f 86//4 82//4 81//4
f 87//1 83//1 82//1
f 88//2 84//2 83//2
f 85//3 81//3 84//3
f 82//5 83//5 84//5
f 87//6 86//6 85//6
f 94//4 90//4 89//4
f 95//1 91//1 90//1
f 96//2 92//2 91//2
f 93//3 89//3 92//3
f 90//5 91//5 92//5
f 95//6 94//6 93//6
f 110//1 106//1 105//1
f 111//2 107//2 106//2
f 112//3 108//3 107//3
f 109//4 105//4 108//4
f 105//5 106//5 107//5
f 111//6 110//6 109//6
f 117//1 118//1 114//1
f 119//2 115//2 114//2
f 120//3 116//3 115//3
f 117//4 113//4 116//4
f 114//5 115//5 116//5
f 119//6 118//6 117//6
f 125//1 126//1 122//1
f 126//2 127//2 123//2
f 128//3 124//3 123//3
f 125//4 121//4 124//4
f 122//5 123//5 124//5
f 127//6 126//6 125//6
f 134//4 130//4 129//4
f 135//1 131//1 130//1
f 136//2 132//2 131//2
f 133//3 129//3 132//3
f 130//5 131//5 132//5
f 135//6 134//6 133//6
f 142//1 138//1 137//1
f 143//2 139//2 138//2
f 144//3 140//3 139//3
f 144//4 141//4 137//4
f 138//5 139//5 140//5
f 143//6 142//6 141//6
f 150//2 146//2 145//2
f 151//3 147//3 146//3
f 152//4 148//4 147//4
f 152//1 149//1 145//1
f 146//5 147//5 148//5
f 151//6 150//6 149//6
usemtl Material.004
f 18//2 19//2 17//2
f 18//2 20//2 19//2
usemtl Material.003
f 22//6 23//6 21//6
f 22//6 24//6 23//6
